<?xml version="1.0" encoding="UTF-8"?>
<svg width="1600" height="900" viewBox="0 0 1600 900" fill="none" xmlns="http://www.w3.org/2000/svg">
  <defs>
    <linearGradient id="bgGradient" x1="240" y1="80" x2="1340" y2="840" gradientUnits="userSpaceOnUse">
      <stop offset="0" stop-color="#F7F0E4"/>
      <stop offset="0.52" stop-color="#efe6d6"/>
      <stop offset="1" stop-color="#dccdb7"/>
    </linearGradient>
    <radialGradient id="haloOne" cx="0" cy="0" r="1" gradientUnits="userSpaceOnUse" gradientTransform="translate(1340 160) rotate(136) scale(420 320)">
      <stop stop-color="rgba(196,93,47,0.22)"/>
      <stop offset="1" stop-color="rgba(196,93,47,0)"/>
    </radialGradient>
    <radialGradient id="haloTwo" cx="0" cy="0" r="1" gradientUnits="userSpaceOnUse" gradientTransform="translate(220 96) rotate(32) scale(360 260)">
      <stop stop-color="rgba(255,255,255,0.82)"/>
      <stop offset="1" stop-color="rgba(255,255,255,0)"/>
    </radialGradient>
    <filter id="blurGlow" x="-20%" y="-20%" width="140%" height="140%">
      <feGaussianBlur stdDeviation="20"/>
    </filter>
  </defs>

  <rect width="1600" height="900" fill="url(#bgGradient)"/>
  <circle cx="1340" cy="160" r="250" fill="url(#haloOne)" filter="url(#blurGlow)"/>
  <circle cx="220" cy="96" r="200" fill="url(#haloTwo)" filter="url(#blurGlow)"/>

  <rect x="72" y="72" width="1456" height="756" rx="42" fill="rgba(255,249,241,0.44)" stroke="rgba(255,255,255,0.5)"/>
  <rect x="96" y="96" width="1408" height="708" rx="34" fill="rgba(255,252,246,0.42)" stroke="rgba(23,21,19,0.06)"/>

  <g transform="translate(146 144)">
    <rect width="182" height="36" rx="18" fill="rgba(255,249,241,0.78)" stroke="rgba(196,93,47,0.18)"/>
    <circle cx="20" cy="18" r="5" fill="#c45d2f"/>
    <text x="36" y="23" class="eyebrow">DOWNLOADABLE TOOLKIT</text>
  </g>

  <g transform="translate(146 218)">
    <text x="0" y="0" class="title"><tspan x="0" dy="0" class="title">EU AI Act</tspan><tspan x="0" dy="84" class="title">AI Governance</tspan><tspan x="0" dy="84" class="title">Starter Kit</tspan></text>
    <text x="0" y="288" class="subtitle">Practical documentation templates for small EU teams using AI in everyday operations.</text>

    <g transform="translate(0 356)">
      <rect width="236" height="68" rx="34" fill="#171513"/>
      <text x="30" y="42" class="cta-primary">Preview the pack</text>
      <rect x="254" width="174" height="68" rx="34" fill="rgba(255,249,241,0.64)" stroke="rgba(23,21,19,0.12)"/>
      <text x="286" y="42" class="cta-secondary">EUR 149</text>
    </g>

    <g transform="translate(0 470)">
      <rect width="410" height="152" rx="28" fill="rgba(255,249,241,0.68)" stroke="rgba(23,21,19,0.08)"/>
      <text x="28" y="42" class="meta-label">Includes</text>
      <text x="28" y="86" class="meta-copy">Policy, register, review SOP, vendor diligence, and incident tracking.</text>
      <text x="28" y="122" class="meta-copy">Built for ordinary business AI use, with explicit scope limits.</text>
    </g>
  </g>

  <g>
    <ellipse cx="1000" cy="745" rx="302" ry="46" fill="rgba(36,24,12,0.10)"/>
    
    <g transform="translate(720 250) rotate(10)">
      <rect x="18" y="22" width="348" height="430" rx="28" fill="rgba(36,24,12,0.08)"/>
      <rect width="348" height="430" rx="28" fill="#fff9f1" stroke="rgba(23,21,19,0.12)"/>
      <rect x="28" y="28" width="292" height="26" rx="13" fill="#c45d2f" opacity="0.12"/>
      <rect x="34" y="74" width="280" height="148" rx="18" fill="#c45d2f" opacity="0.08"/>
      <text x="34" y="48" class="doc-chip" fill="#c45d2f">AI-usage-policy.md</text>
      <text x="34" y="112" class="doc-title">Internal AI use policy</text>
      
        <g transform="translate(34 146)">
          <rect width="200" height="10" rx="5" fill="rgba(23,21,19,0.08)"/>
          <text x="0" y="28" class="doc-copy">Approved uses</text>
        </g>
      
        <g transform="translate(34 180)">
          <rect width="200" height="10" rx="5" fill="rgba(23,21,19,0.08)"/>
          <text x="0" y="28" class="doc-copy">Confidentiality boundaries</text>
        </g>
      
        <g transform="translate(34 214)">
          <rect width="200" height="10" rx="5" fill="rgba(23,21,19,0.08)"/>
          <text x="0" y="28" class="doc-copy">Human review requirements</text>
        </g>
      
      <line x1="34" y1="290" x2="314" y2="290" stroke="rgba(23,21,19,0.09)"/>
      <text x="34" y="324" class="doc-micro">Scope</text>
      <text x="182" y="324" class="doc-micro">Owner</text>
      <rect x="34" y="342" width="126" height="54" rx="15" fill="rgba(255,249,241,0.8)" stroke="rgba(23,21,19,0.08)"/>
      <rect x="182" y="342" width="132" height="54" rx="15" fill="rgba(255,249,241,0.8)" stroke="rgba(23,21,19,0.08)"/>
      <text x="49" y="374" class="doc-data">Ordinary use</text>
      <text x="197" y="374" class="doc-data">Ops / Legal</text>
    </g>
  
    <g transform="translate(650 180) rotate(-6)">
      <rect x="18" y="22" width="348" height="430" rx="28" fill="rgba(36,24,12,0.08)"/>
      <rect width="348" height="430" rx="28" fill="#fff9f1" stroke="rgba(23,21,19,0.12)"/>
      <rect x="28" y="28" width="292" height="26" rx="13" fill="#31473f" opacity="0.12"/>
      <rect x="34" y="74" width="280" height="148" rx="18" fill="#31473f" opacity="0.08"/>
      <text x="34" y="48" class="doc-chip" fill="#31473f">ai-systems-register.md</text>
      <text x="34" y="112" class="doc-title">Tool inventory register</text>
      
        <g transform="translate(34 146)">
          <rect width="200" height="10" rx="5" fill="rgba(23,21,19,0.08)"/>
          <text x="0" y="28" class="doc-copy">Owner and purpose</text>
        </g>
      
        <g transform="translate(34 180)">
          <rect width="200" height="10" rx="5" fill="rgba(23,21,19,0.08)"/>
          <text x="0" y="28" class="doc-copy">Data sensitivity</text>
        </g>
      
        <g transform="translate(34 214)">
          <rect width="200" height="10" rx="5" fill="rgba(23,21,19,0.08)"/>
          <text x="0" y="28" class="doc-copy">Review cadence</text>
        </g>
      
      <line x1="34" y1="290" x2="314" y2="290" stroke="rgba(23,21,19,0.09)"/>
      <text x="34" y="324" class="doc-micro">Scope</text>
      <text x="182" y="324" class="doc-micro">Owner</text>
      <rect x="34" y="342" width="126" height="54" rx="15" fill="rgba(255,249,241,0.8)" stroke="rgba(23,21,19,0.08)"/>
      <rect x="182" y="342" width="132" height="54" rx="15" fill="rgba(255,249,241,0.8)" stroke="rgba(23,21,19,0.08)"/>
      <text x="49" y="374" class="doc-data">Ordinary use</text>
      <text x="197" y="374" class="doc-data">Ops / Legal</text>
    </g>
  
    <g transform="translate(565 118) rotate(-14)">
      <rect x="18" y="22" width="348" height="430" rx="28" fill="rgba(36,24,12,0.08)"/>
      <rect width="348" height="430" rx="28" fill="#fff9f1" stroke="rgba(23,21,19,0.12)"/>
      <rect x="28" y="28" width="292" height="26" rx="13" fill="#b9923f" opacity="0.12"/>
      <rect x="34" y="74" width="280" height="148" rx="18" fill="#b9923f" opacity="0.08"/>
      <text x="34" y="48" class="doc-chip" fill="#b9923f">incident-log.md</text>
      <text x="34" y="112" class="doc-title">Incident record</text>
      
        <g transform="translate(34 146)">
          <rect width="200" height="10" rx="5" fill="rgba(23,21,19,0.08)"/>
          <text x="0" y="28" class="doc-copy">Misuse and exposure log</text>
        </g>
      
        <g transform="translate(34 180)">
          <rect width="200" height="10" rx="5" fill="rgba(23,21,19,0.08)"/>
          <text x="0" y="28" class="doc-copy">Root cause capture</text>
        </g>
      
        <g transform="translate(34 214)">
          <rect width="200" height="10" rx="5" fill="rgba(23,21,19,0.08)"/>
          <text x="0" y="28" class="doc-copy">Remediation tracking</text>
        </g>
      
      <line x1="34" y1="290" x2="314" y2="290" stroke="rgba(23,21,19,0.09)"/>
      <text x="34" y="324" class="doc-micro">Scope</text>
      <text x="182" y="324" class="doc-micro">Owner</text>
      <rect x="34" y="342" width="126" height="54" rx="15" fill="rgba(255,249,241,0.8)" stroke="rgba(23,21,19,0.08)"/>
      <rect x="182" y="342" width="132" height="54" rx="15" fill="rgba(255,249,241,0.8)" stroke="rgba(23,21,19,0.08)"/>
      <text x="49" y="374" class="doc-data">Ordinary use</text>
      <text x="197" y="374" class="doc-data">Ops / Legal</text>
    </g>
  
  </g>

  <g transform="translate(1020 188)">
    <rect width="360" height="132" rx="30" fill="rgba(29,28,27,0.92)"/>
    <text x="28" y="42" class="panel-label">What buyers get</text>
    <text x="28" y="82" class="panel-copy">A compact governance documentation system for small EU teams already using AI.</text>
  </g>

  
        <g transform="translate(1020 620)">
          <rect width="198" height="38" rx="19" fill="rgba(255,249,241,0.72)" stroke="rgba(23,21,19,0.1)"/>
          <circle cx="18" cy="19" r="4" fill="#c45d2f"/>
          <text x="32" y="24" class="badge-text">Policy template</text>
        </g>
      
        <g transform="translate(1255 620)">
          <rect width="198" height="38" rx="19" fill="rgba(255,249,241,0.72)" stroke="rgba(23,21,19,0.1)"/>
          <circle cx="18" cy="19" r="4" fill="#c45d2f"/>
          <text x="32" y="24" class="badge-text">Systems register</text>
        </g>
      
        <g transform="translate(1020 676)">
          <rect width="198" height="38" rx="19" fill="rgba(255,249,241,0.72)" stroke="rgba(23,21,19,0.1)"/>
          <circle cx="18" cy="19" r="4" fill="#c45d2f"/>
          <text x="32" y="24" class="badge-text">Review SOP</text>
        </g>
      
        <g transform="translate(1255 676)">
          <rect width="198" height="38" rx="19" fill="rgba(255,249,241,0.72)" stroke="rgba(23,21,19,0.1)"/>
          <circle cx="18" cy="19" r="4" fill="#c45d2f"/>
          <text x="32" y="24" class="badge-text">Incident log</text>
        </g>
      
        <g transform="translate(1020 732)">
          <rect width="198" height="38" rx="19" fill="rgba(255,249,241,0.72)" stroke="rgba(23,21,19,0.1)"/>
          <circle cx="18" cy="19" r="4" fill="#c45d2f"/>
          <text x="32" y="24" class="badge-text">Vendor checklist</text>
        </g>
      

  <g transform="translate(1020 484)">
    <rect width="360" height="92" rx="28" fill="rgba(255,249,241,0.68)" stroke="rgba(23,21,19,0.08)"/>
    <text x="28" y="38" class="meta-label">Tone</text>
    <text x="28" y="68" class="meta-copy">Premium, practical, and explicit about what the toolkit does not claim.</text>
  </g>

  <text x="112" y="854" class="footer-copy">Verto Studios • EU AI Act toolkit preview asset • 1600 × 900</text>

  <style>
    .eyebrow {
      font-family: sans-serif;
      font-size: 14px;
      font-weight: 700;
      letter-spacing: 0.18em;
      fill: #c45d2f;
    }
    .title {
      font-family: serif;
      font-size: 76px;
      font-weight: 700;
      letter-spacing: -0.05em;
      fill: #171513;
    }
    .subtitle {
      font-family: sans-serif;
      font-size: 27px;
      font-weight: 500;
      fill: #4a443c;
    }
    .cta-primary {
      font-family: sans-serif;
      font-size: 24px;
      font-weight: 700;
      fill: #fff9f1;
    }
    .cta-secondary {
      font-family: sans-serif;
      font-size: 24px;
      font-weight: 700;
      fill: #171513;
    }
    .meta-label {
      font-family: sans-serif;
      font-size: 16px;
      font-weight: 700;
      letter-spacing: 0.16em;
      text-transform: uppercase;
      fill: #8f3f1f;
    }
    .meta-copy {
      font-family: sans-serif;
      font-size: 20px;
      font-weight: 500;
      fill: #4a443c;
    }
    .panel-label {
      font-family: sans-serif;
      font-size: 14px;
      font-weight: 700;
      letter-spacing: 0.16em;
      text-transform: uppercase;
      fill: #F0D9C9;
    }
    .panel-copy {
      font-family: serif;
      font-size: 26px;
      font-weight: 600;
      letter-spacing: -0.03em;
      fill: #fff9f1;
    }
    .badge-text {
      font-family: sans-serif;
      font-size: 15px;
      font-weight: 600;
      fill: #171513;
    }
    .doc-chip {
      font-family: sans-serif;
      font-size: 14px;
      font-weight: 700;
      letter-spacing: 0.08em;
    }
    .doc-title {
      font-family: serif;
      font-size: 30px;
      font-weight: 700;
      letter-spacing: -0.04em;
      fill: #171513;
    }
    .doc-copy {
      font-family: sans-serif;
      font-size: 16px;
      font-weight: 500;
      fill: #4a443c;
    }
    .doc-micro {
      font-family: sans-serif;
      font-size: 13px;
      font-weight: 700;
      letter-spacing: 0.08em;
      text-transform: uppercase;
      fill: #8f3f1f;
    }
    .doc-data {
      font-family: sans-serif;
      font-size: 16px;
      font-weight: 600;
      fill: #171513;
    }
    .footer-copy {
      font-family: sans-serif;
      font-size: 14px;
      font-weight: 500;
      letter-spacing: 0.04em;
      fill: rgba(23,21,19,0.48);
    }
  </style>
</svg>
