<?xml version="1.0" encoding="UTF-8"?>
<svg width="1600" height="900" viewBox="0 0 1600 900" fill="none" xmlns="http://www.w3.org/2000/svg">
  <defs>
    <linearGradient id="bgGradient" x1="220" y1="50" x2="1380" y2="860" gradientUnits="userSpaceOnUse">
      <stop offset="0" stop-color="#f8f1e6"/>
      <stop offset="0.52" stop-color="#efe6d6"/>
      <stop offset="1" stop-color="#d7c4aa"/>
    </linearGradient>
    <linearGradient id="coverGradient" x1="780" y1="140" x2="1170" y2="730" gradientUnits="userSpaceOnUse">
      <stop offset="0" stop-color="#2a2723"/>
      <stop offset="1" stop-color="#1d1c1b"/>
    </linearGradient>
    <linearGradient id="spineGradient" x1="714" y1="180" x2="772" y2="720" gradientUnits="userSpaceOnUse">
      <stop offset="0" stop-color="#3a352f"/>
      <stop offset="1" stop-color="#201d19"/>
    </linearGradient>
    <radialGradient id="haloWarm" cx="0" cy="0" r="1" gradientUnits="userSpaceOnUse" gradientTransform="translate(1310 150) rotate(139) scale(360 280)">
      <stop stop-color="#c45d2f" stop-opacity="0.17"/>
      <stop offset="1" stop-color="#c45d2f" stop-opacity="0"/>
    </radialGradient>
    <radialGradient id="haloLight" cx="0" cy="0" r="1" gradientUnits="userSpaceOnUse" gradientTransform="translate(240 110) rotate(30) scale(320 250)">
      <stop stop-color="#ffffff" stop-opacity="0.82"/>
      <stop offset="1" stop-color="#ffffff" stop-opacity="0"/>
    </radialGradient>
    <filter id="shadowLg" x="-20%" y="-20%" width="140%" height="160%">
      <feDropShadow dx="0" dy="26" stdDeviation="28" flood-color="#261a10" flood-opacity="0.18"/>
    </filter>
    <filter id="shadowSoft" x="-20%" y="-20%" width="150%" height="170%">
      <feDropShadow dx="0" dy="18" stdDeviation="18" flood-color="#261a10" flood-opacity="0.12"/>
    </filter>
  </defs>

  <rect width="1600" height="900" fill="url(#bgGradient)"/>
  <circle cx="1310" cy="150" r="220" fill="url(#haloWarm)"/>
  <circle cx="240" cy="110" r="190" fill="url(#haloLight)"/>

  <rect x="66" y="62" width="1468" height="776" rx="42" fill="rgba(255,250,244,0.42)" stroke="rgba(255,255,255,0.52)"/>
  <rect x="90" y="86" width="1420" height="728" rx="34" fill="rgba(255,252,246,0.36)" stroke="rgba(23,21,19,0.06)"/>

  <g transform="translate(136 136)">
    <rect width="258" height="38" rx="19" fill="rgba(255,249,241,0.84)" stroke="rgba(196,93,47,0.20)"/>
    <circle cx="18" cy="19" r="5" fill="#c45d2f"/>
    <text x="34" y="24" class="eyebrow">DOWNLOADABLE GOVERNANCE PACK</text>
  </g>

  <g transform="translate(136 214)">
    <text x="0" y="0" class="title"><tspan x="0" dy="0" class="title">EU AI Act</tspan><tspan x="0" dy="86" class="title">AI Governance</tspan><tspan x="0" dy="86" class="title">Starter Kit</tspan></text>
    <text x="0" y="290" class="subtitle">Practical policy and register templates for EU teams already using AI in everyday operations.</text>
  </g>

  
  <g transform="translate(136 558)">
    <rect width="392" height="120" rx="26" fill="rgba(255,249,241,0.72)" stroke="rgba(23,21,19,0.08)"/>
    <text x="24" y="36" class="meta-label">Core pack</text>
    <text x="24" y="66" class="summary-copy">5 governance templates plus a short implementation guide for week-one rollout.</text>
  </g>

  
  <g transform="translate(136 698)">
    <rect width="392" height="120" rx="26" fill="rgba(255,249,241,0.72)" stroke="rgba(23,21,19,0.08)"/>
    <text x="24" y="36" class="meta-label">Preview before buying</text>
    <text x="24" y="66" class="summary-copy">The landing page shows the sample register and the product pack at full size.</text>
  </g>


  <g>
    <ellipse cx="1030" cy="774" rx="340" ry="54" fill="rgba(36,24,12,0.12)"/>
    <rect x="736" y="150" width="428" height="548" rx="32" fill="url(#coverGradient)" filter="url(#shadowLg)"/>
    <path d="M736 182C736 164.327 750.327 150 768 150H820V698H768C750.327 698 736 683.673 736 666V182Z" fill="url(#spineGradient)"/>
    <rect x="820" y="150" width="344" height="548" rx="30" fill="url(#coverGradient)"/>
    <rect x="852" y="182" width="280" height="484" rx="22" fill="none" stroke="#ead8ab" stroke-opacity="0.72"/>
    <rect x="876" y="210" width="138" height="34" rx="17" fill="rgba(196,93,47,0.14)" stroke="rgba(196,93,47,0.30)"/>
    <text x="896" y="232" class="cover-chip">EUR 149</text>
    <text x="880" y="302" class="cover-kicker">AI GOVERNANCE</text>
    <text x="880" y="360" class="cover-title"><tspan x="880" dy="0" class="cover-title">Starter</tspan><tspan x="880" dy="72" class="cover-title">Kit</tspan></text>
    <text x="880" y="520" class="cover-copy">Policy, register, human review SOP, incident log, vendor checks, and implementation notes.</text>
    <line x1="880" y1="570" x2="1108" y2="570" stroke="#b9923f" stroke-opacity="0.34"/>
    <text x="880" y="612" class="cover-footer">Built for small EU teams already using AI</text>
  </g>

  
    <g transform="translate(1068 168) rotate(8)" filter="url(#shadowSoft)">
      <rect width="250" height="336" rx="24" fill="#fff9f1" stroke="rgba(23,21,19,0.12)"/>
      <rect x="22" y="22" width="206" height="20" rx="10" fill="#31473f" opacity="0.16"/>
      <rect x="24" y="56" width="202" height="38" rx="18" fill="#31473f" opacity="0.08"/>
      <text x="24" y="36" class="doc-chip" fill="#31473f">ai-systems-register.md</text>
      <text x="24" y="92" class="doc-title">Sample register</text>
      
        <g transform="translate(24 108)">
          <rect width="180" height="10" rx="5" fill="rgba(23,21,19,0.08)"/>
          <text x="0" y="28" class="doc-copy">Named owner</text>
        </g>
      
        <g transform="translate(24 142)">
          <rect width="180" height="10" rx="5" fill="rgba(23,21,19,0.08)"/>
          <text x="0" y="28" class="doc-copy">Purpose + data categories</text>
        </g>
      
        <g transform="translate(24 176)">
          <rect width="180" height="10" rx="5" fill="rgba(23,21,19,0.08)"/>
          <text x="0" y="28" class="doc-copy">Review date + controls</text>
        </g>
      
      
      <line x1="24" y1="226" x2="226" y2="226" stroke="rgba(23,21,19,0.09)"/>
      <text x="24" y="250" class="doc-micro">Scope</text>
      <text x="162" y="250" class="doc-micro">Owner</text>
      <rect x="24" y="268" width="92" height="42" rx="13" fill="rgba(255,249,241,0.9)" stroke="rgba(23,21,19,0.08)"/>
      <rect x="138" y="268" width="88" height="42" rx="13" fill="rgba(255,249,241,0.9)" stroke="rgba(23,21,19,0.08)"/>
      <text x="38" y="294" class="doc-data">Ordinary</text>
      <text x="152" y="294" class="doc-data">Ops</text>
    
    </g>
  
    <g transform="translate(1150 232) rotate(3)" filter="url(#shadowSoft)">
      <rect width="246" height="330" rx="24" fill="#fff9f1" stroke="rgba(23,21,19,0.12)"/>
      <rect x="22" y="22" width="202" height="20" rx="10" fill="#c45d2f" opacity="0.16"/>
      <rect x="24" y="56" width="198" height="38" rx="18" fill="#c45d2f" opacity="0.08"/>
      <text x="24" y="36" class="doc-chip" fill="#c45d2f">ai-usage-policy.md</text>
      <text x="24" y="92" class="doc-title">Usage policy</text>
      
        <g transform="translate(24 108)">
          <rect width="180" height="10" rx="5" fill="rgba(23,21,19,0.08)"/>
          <text x="0" y="28" class="doc-copy">Allowed use cases</text>
        </g>
      
        <g transform="translate(24 142)">
          <rect width="180" height="10" rx="5" fill="rgba(23,21,19,0.08)"/>
          <text x="0" y="28" class="doc-copy">Confidentiality rules</text>
        </g>
      
        <g transform="translate(24 176)">
          <rect width="180" height="10" rx="5" fill="rgba(23,21,19,0.08)"/>
          <text x="0" y="28" class="doc-copy">Escalation triggers</text>
        </g>
      
      
      <line x1="24" y1="226" x2="222" y2="226" stroke="rgba(23,21,19,0.09)"/>
      <text x="24" y="250" class="doc-micro">Scope</text>
      <text x="158" y="250" class="doc-micro">Owner</text>
      <rect x="24" y="268" width="92" height="42" rx="13" fill="rgba(255,249,241,0.9)" stroke="rgba(23,21,19,0.08)"/>
      <rect x="134" y="268" width="88" height="42" rx="13" fill="rgba(255,249,241,0.9)" stroke="rgba(23,21,19,0.08)"/>
      <text x="38" y="294" class="doc-data">Ordinary</text>
      <text x="148" y="294" class="doc-data">Ops</text>
    
    </g>
  
    <g transform="translate(980 566) rotate(-4)" filter="url(#shadowSoft)">
      <rect width="408" height="220" rx="24" fill="#fff9f1" stroke="rgba(23,21,19,0.12)"/>
      <rect x="22" y="22" width="364" height="20" rx="10" fill="#b9923f" opacity="0.16"/>
      <rect x="24" y="56" width="360" height="22" rx="11" fill="#b9923f" opacity="0.08"/>
      <text x="24" y="36" class="doc-chip" fill="#b9923f">human-review-sop.md</text>
      <text x="24" y="92" class="doc-title">Review SOP</text>
      
        <g transform="translate(24 98)">
          <rect width="216" height="10" rx="5" fill="rgba(23,21,19,0.08)"/>
          <text x="0" y="28" class="doc-copy">Human sign-off path</text>
        </g>
      
        <g transform="translate(24 128)">
          <rect width="216" height="10" rx="5" fill="rgba(23,21,19,0.08)"/>
          <text x="0" y="28" class="doc-copy">Sensitive output checks</text>
        </g>
      
        <g transform="translate(24 158)">
          <rect width="216" height="10" rx="5" fill="rgba(23,21,19,0.08)"/>
          <text x="0" y="28" class="doc-copy">Incident follow-up</text>
        </g>
      
      
      <line x1="24" y1="160" x2="384" y2="160" stroke="rgba(23,21,19,0.09)"/>
      <text x="24" y="184" class="doc-micro">Preview</text>
      <text x="262" y="184" class="doc-micro">Ready to adapt</text>
    
    </g>
  

  <g transform="translate(1240 110)">
    <rect width="242" height="342" rx="30" fill="rgba(29,28,27,0.94)" filter="url(#shadowSoft)"/>
    <text x="26" y="38" class="panel-label">What buyers receive</text>
    <text x="26" y="78" class="panel-copy">A clean starter pack with policy, systems register, human review SOP, incident log, vendor checklist, and a short implementation guide.</text>
  </g>

  
    <g transform="translate(1240 154)">
      <rect width="242" height="46" rx="23" fill="rgba(255,249,241,0.76)" stroke="rgba(23,21,19,0.10)"/>
      <circle cx="18" cy="23" r="5" fill="#c45d2f"/>
      <text x="34" y="29" class="badge-text">Policy template</text>
    </g>
  
    <g transform="translate(1240 216)">
      <rect width="242" height="46" rx="23" fill="rgba(255,249,241,0.76)" stroke="rgba(23,21,19,0.10)"/>
      <circle cx="18" cy="23" r="5" fill="#c45d2f"/>
      <text x="34" y="29" class="badge-text">Systems register</text>
    </g>
  
    <g transform="translate(1240 278)">
      <rect width="242" height="46" rx="23" fill="rgba(255,249,241,0.76)" stroke="rgba(23,21,19,0.10)"/>
      <circle cx="18" cy="23" r="5" fill="#c45d2f"/>
      <text x="34" y="29" class="badge-text">Review SOP</text>
    </g>
  
    <g transform="translate(1240 340)">
      <rect width="242" height="46" rx="23" fill="rgba(255,249,241,0.76)" stroke="rgba(23,21,19,0.10)"/>
      <circle cx="18" cy="23" r="5" fill="#c45d2f"/>
      <text x="34" y="29" class="badge-text">Incident log</text>
    </g>
  
    <g transform="translate(1240 402)">
      <rect width="242" height="46" rx="23" fill="rgba(255,249,241,0.76)" stroke="rgba(23,21,19,0.10)"/>
      <circle cx="18" cy="23" r="5" fill="#c45d2f"/>
      <text x="34" y="29" class="badge-text">Vendor checklist</text>
    </g>
  

  <g transform="translate(1240 522)">
    <rect width="242" height="118" rx="26" fill="rgba(255,249,241,0.76)" stroke="rgba(23,21,19,0.08)"/>
    <text x="24" y="34" class="meta-label">Editable</text>
    <text x="24" y="64" class="summary-copy">Structured to adapt in Docs, Word, Notion, Excel, or Sheets.</text>
  </g>

  <text x="112" y="856" class="footer-copy">Verto Studios • product preview asset • 1600 × 900</text>

  <style>
    .eyebrow {
      font-family: Verdana, sans-serif;
      font-size: 14px;
      font-weight: 700;
      letter-spacing: 0.16em;
      fill: #c45d2f;
    }
    .title {
      font-family: Georgia, serif;
      font-size: 78px;
      font-weight: 700;
      letter-spacing: -0.055em;
      fill: #171513;
    }
    .subtitle {
      font-family: Verdana, sans-serif;
      font-size: 28px;
      font-weight: 500;
      fill: #4a443c;
    }
    .meta-label {
      font-family: Verdana, sans-serif;
      font-size: 14px;
      font-weight: 700;
      letter-spacing: 0.16em;
      text-transform: uppercase;
      fill: #8f3f1f;
    }
    .summary-copy {
      font-family: Verdana, sans-serif;
      font-size: 21px;
      font-weight: 500;
      fill: #4a443c;
    }
    .cover-chip {
      font-family: Verdana, sans-serif;
      font-size: 16px;
      font-weight: 700;
      letter-spacing: 0.06em;
      fill: #c45d2f;
    }
    .cover-kicker {
      font-family: Verdana, sans-serif;
      font-size: 18px;
      font-weight: 700;
      letter-spacing: 0.18em;
      fill: #ead8ab;
    }
    .cover-title {
      font-family: Georgia, serif;
      font-size: 64px;
      font-weight: 700;
      letter-spacing: -0.05em;
      fill: #fff9f1;
    }
    .cover-copy {
      font-family: Verdana, sans-serif;
      font-size: 23px;
      font-weight: 500;
      fill: rgba(255,249,241,0.84);
    }
    .cover-footer {
      font-family: Verdana, sans-serif;
      font-size: 18px;
      font-weight: 600;
      fill: rgba(255,249,241,0.78);
    }
    .panel-label {
      font-family: Verdana, sans-serif;
      font-size: 14px;
      font-weight: 700;
      letter-spacing: 0.16em;
      text-transform: uppercase;
      fill: #f0d9c9;
    }
    .panel-copy {
      font-family: Georgia, serif;
      font-size: 29px;
      font-weight: 600;
      letter-spacing: -0.04em;
      fill: #fff9f1;
    }
    .badge-text {
      font-family: Verdana, sans-serif;
      font-size: 15px;
      font-weight: 700;
      fill: #171513;
    }
    .doc-chip {
      font-family: Verdana, sans-serif;
      font-size: 13px;
      font-weight: 700;
      letter-spacing: 0.08em;
    }
    .doc-title {
      font-family: Georgia, serif;
      font-size: 30px;
      font-weight: 700;
      letter-spacing: -0.04em;
      fill: #171513;
    }
    .doc-copy {
      font-family: Verdana, sans-serif;
      font-size: 15px;
      font-weight: 500;
      fill: #4a443c;
    }
    .doc-micro {
      font-family: Verdana, sans-serif;
      font-size: 12px;
      font-weight: 700;
      letter-spacing: 0.08em;
      text-transform: uppercase;
      fill: #8f3f1f;
    }
    .doc-data {
      font-family: Verdana, sans-serif;
      font-size: 15px;
      font-weight: 600;
      fill: #171513;
    }
    .footer-copy {
      font-family: Verdana, sans-serif;
      font-size: 14px;
      font-weight: 500;
      letter-spacing: 0.04em;
      fill: rgba(23,21,19,0.48);
    }
  </style>
</svg>
